# xmcd
#
# Track frame offsets:
#	150
#	18270
#	45554
#	67606
#	80908
#	108446
#	142724
#	167291
#	185124
#	206461
#	233589
#
# Disc length: 3485 seconds
#
# Revision: 1
# Processed by: cddbd v1.5.2PL0 Copyright (c) Steve Scherf et al.
# Submitted via: audiograbber 1.83.01
#
DISCID=800d9b0b
DTITLE=Harri Stojka and Gitancoeur - Gitancoeur
DYEAR=2000
DGENRE=Jazz
TTITLE0=Gon Shanel
TTITLE1=Gerimo
TTITLE2=Aver Djejs Dikessa
TTITLE3=Binjarav Du
TTITLE4=Manushensa
TTITLE5=Andalusia
TTITLE6=Dui Esera
TTITLE7=Galo Jilo
TTITLE8=Tom Cat Groove
TTITLE9=E Terne
TTITLE10=Gitancoeur
EXTD=
EXTT0=
EXTT1=
EXTT2=
EXTT3=
EXTT4=
EXTT5=
EXTT6=
EXTT7=
EXTT8=
EXTT9=
EXTT10=
PLAYORDER=
